# xmcd
#
# Track frame offsets: 
#        150
#        10561
#        22688
#        36703
#        47784
#        59836
#        71365
#        91766
#        105047
#        117517
#        128937
#        178887
#        188649
#        199185
#        222800
#        236849
#        257651
#        269943
#        285937
#        298158
#        308476
#        327489
#
# Disc length: 4799 seconds
#
# Revision: 2
# Processed by: cddbd v1.5.2PL0 Copyright (c) Steve Scherf et al.
# Submitted via: ExactAudioCopy v1.0b3
#
DISCID=4712bd16
DTITLE=Creedence Clearwater Revival - Creedence Clearwater Revival Gre
DTITLE=atest Hits
DYEAR=2008
DGENRE=Classic Rock
TTITLE0=Fortunate Son
TTITLE1=Up Around The Bend
TTITLE2=Run Through The Jungle
TTITLE3=Who 'll Stop The Rain
TTITLE4=Have You Ever Seen The Rain
TTITLE5=Lookin' Out My Back Door
TTITLE6=Creedence Clearwatev Revival - I Put A Spell On You
TTITLE7=Cotton Fields
TTITLE8=Down On The Corner
TTITLE9=Green River
TTITLE10=I Heard It Through The Grapevine
TTITLE11=Travelin' Band
TTITLE12=Bad Moon Rising
TTITLE13=Born On The Bayou
TTITLE14=Proud Mary
TTITLE15=Suzie Q.
TTITLE16=Commotion
TTITLE17=Long As I Can See The Light
TTITLE18=Good Golly Miss Molly
TTITLE19=Hello Mary Lou
TTITLE20=The Midnight Special
TTITLE21=Ramble Tamble
EXTD=
EXTT0=
EXTT1=
EXTT2=
EXTT3=
EXTT4=
EXTT5=
EXTT6=
EXTT7=
EXTT8=
EXTT9=
EXTT10=
EXTT11=
EXTT12=
EXTT13=
EXTT14=
EXTT15=
EXTT16=
EXTT17=
EXTT18=
EXTT19=
EXTT20=
EXTT21=
PLAYORDER=
